<svg width="400" height="261" viewBox="0 0 400 261" fill="none" xmlns="http://www.w3.org/2000/svg">
<g clip-path="url(#clip0_3_282)">
<path d="M258.627 45.3425C258.482 45.1555 258.338 44.9686 258.183 44.7869C255.881 42.0144 252.67 40.2355 249.08 39.7334C245.426 39.2259 241.789 40.1073 238.786 42.2121C233.904 36.2076 225.068 35.1018 218.844 39.8082C218.417 40.1287 218.016 40.4706 217.637 40.8285C217.37 41.0795 217.119 41.3413 216.879 41.6084C216.905 41.6512 216.932 41.6885 216.964 41.7313L233.909 64.5258L234.336 64.2053C235.234 63.5429 256.217 47.9388 256.88 47.442C257.601 46.8971 258.258 46.2934 258.846 45.647C258.776 45.5455 258.702 45.444 258.627 45.3425Z" fill="#BB1F1F"/>
<path d="M259.695 27.1795C257.366 24.0917 253.974 22.1045 250.149 21.5703C246.495 21.0628 242.857 21.9442 239.855 24.049C234.972 18.0445 226.136 16.9387 219.913 21.6451C213.684 26.3461 212.343 35.278 216.878 41.6084C216.905 41.6511 216.932 41.6885 216.964 41.7312L233.909 64.5258L234.336 64.2052C235.234 63.5428 256.217 47.9387 256.88 47.4419C257.601 46.897 258.258 46.2933 258.846 45.6469C263.451 40.604 263.963 32.8207 259.695 27.1795ZM258.183 44.7868C257.601 45.4439 256.949 46.0476 256.233 46.5871C255.63 47.0466 237.194 60.7489 234.128 63.03L217.824 41.0955C217.76 41.01 217.696 40.9192 217.637 40.8284C213.566 34.9735 214.843 26.8162 220.559 22.4945C222.974 20.6728 225.805 19.7914 228.62 19.7914C232.68 19.7914 236.698 21.6237 239.326 25.1067L239.646 25.5341L240.074 25.2082C245.966 20.7583 254.39 21.9282 258.846 27.8205C261.004 30.6785 261.917 34.1989 261.426 37.746C261.057 40.4064 259.93 42.8317 258.183 44.7868Z" fill="#3F3D56"/>
<path d="M374.765 54.489L371.277 53.9548C370.796 51.5082 370.085 49.0989 369.161 46.7805C369.557 49.0348 369.407 51.38 368.755 53.5702L331.195 47.8275C333.033 39.7503 334.075 32.202 333.455 25.7434C332.531 16.0529 339.711 7.32935 349.438 6.98745C349.706 6.97678 349.978 6.97144 350.25 6.97144C359.262 6.97144 366.704 12.2387 367.788 19.0445C368.173 21.4805 368.713 23.8951 369.161 26.3257C370.844 35.4286 377.885 47.5604 374.765 54.489Z" fill="#2F2E41"/>
<path d="M276.035 68.9831C277.246 69.4858 278.244 70.2206 278.922 71.0355L290.766 75.0959L288.67 80.6757L276.88 75.956C275.824 76.0519 274.6 75.8645 273.388 75.3617C270.62 74.2132 268.969 71.8542 269.7 70.0928C270.431 68.3313 273.267 67.8345 276.035 68.9831Z" fill="#FFB6B6"/>
<path d="M314.122 248.089L309.437 248.2L306.826 227.154L313.739 226.99L314.122 248.089Z" fill="#FFB7B7"/>
<path d="M298.05 257.863C298.05 258.654 298.612 259.296 299.304 259.296H308.603C308.603 259.296 309.518 255.617 313.249 254.035L313.506 259.296H318.303L317.722 250.836C317.722 250.836 319.005 246.31 316.34 243.996C313.675 241.683 315.833 242.005 315.833 242.005L314.785 236.769L307.537 237.621L307.484 245.841L303.966 253.999L298.807 256.548C298.347 256.774 298.05 257.291 298.05 257.863Z" fill="#2F2E41"/>
<path d="M364.48 248.089L359.796 248.2L357.184 227.154L364.098 226.99L364.48 248.089Z" fill="#FFB7B7"/>
<path d="M348.408 257.863C348.408 258.654 348.97 259.296 349.662 259.296H358.961C358.961 259.296 359.876 255.617 363.607 254.035L363.864 259.296H368.661L368.08 250.836C368.08 250.836 369.363 246.31 366.698 243.996C364.033 241.683 366.192 242.005 366.192 242.005L365.143 236.769L357.895 237.621L357.842 245.841L354.324 253.999L349.165 256.548C348.705 256.774 348.408 257.291 348.408 257.863Z" fill="#2F2E41"/>
<path d="M326.687 95.0886L355.534 99.8965C359.316 106.148 366.752 129.812 366.752 129.812C366.752 129.812 364.804 195.553 366.469 233.588L354.465 233.982L338.439 149.043L317.071 231.845L305.415 232.67L306.921 173.617C306.921 173.617 323.028 95.8203 326.687 95.0886Z" fill="#2F2E41"/>
<path d="M340.303 42.6196L354.993 43.0787L370.142 63.2773C364.267 78.1241 358.741 88.8445 358.983 99.4308C359.003 100.328 360.466 102.343 360.585 103.17C360.747 104.289 358.621 105.93 358.983 106.91L323.481 99.3622C324.2 98.349 323.581 97.0686 324.016 96.157C324.397 95.3556 325.863 94.9157 326.041 94.1386C327.003 89.9423 327.516 82.9409 323.898 74.7191C321.326 68.8729 332.648 55.2348 332.04 48.5874L340.303 42.6196Z" fill="#E6E6E6"/>
<path d="M343.671 52.0509L316.649 88.5257L284.974 79.8036L286.351 71.5406L310.471 76.1088L323.927 55.4224C328.32 46.929 336.98 45.2186 343.671 52.0509Z" fill="#E6E6E6"/>
<path d="M347.154 37.9662C354.193 37.9662 359.899 32.2603 359.899 25.2218C359.899 18.1834 354.193 12.4775 347.154 12.4775C340.116 12.4775 334.41 18.1834 334.41 25.2218C334.41 32.2603 340.116 37.9662 347.154 37.9662Z" fill="#FFB7B7"/>
<path d="M359.006 139.601C359.364 138.339 359.978 137.262 360.708 136.495L363.363 124.258L369.149 125.691L365.833 137.95C366.051 138.987 366.008 140.225 365.649 141.487C364.831 144.37 362.68 146.285 360.845 145.764C359.011 145.243 358.187 142.483 359.006 139.601Z" fill="#FFB6B6"/>
<path d="M359.806 50.0167C359.806 50.0167 370.489 49.4726 371.267 56.5566C372.045 63.6405 374.533 103.986 374.533 103.986L368.765 131.218L360.539 130.075L364.174 95.4114L359.806 50.0167Z" fill="#E6E6E6"/>
<path d="M360.112 14.3914C360.112 17.2708 358.515 20.9782 358.515 25.332L353.669 24.0713C353.573 23.2272 353.082 20.5882 352.863 19.7656C352.975 20.5402 353.215 23.1417 352.948 23.8789L350.571 23.2592C350.555 22.8158 350.518 22.3725 350.464 21.9344C350.368 21.0904 350.208 20.257 349.989 19.4344C350.101 20.2089 350.01 21.0049 349.743 21.7421C349.588 22.1481 349.385 22.5327 349.129 22.8853L337.397 19.8243C334.556 18.7551 334.121 22.518 334.166 27.2444C334.166 27.2444 332.563 10.6841 344.743 9.7278L346.58 7.89014C357.644 8.52584 360.112 10.8176 360.112 14.3914Z" fill="#2F2E41"/>
<path d="M333.998 30.0686C334.434 34.5163 333.903 38.9911 333.269 43.4201C333.066 44.8455 332.839 46.3046 332.08 47.5735C331.32 48.8425 329.908 49.902 328.289 49.9349C330.834 50.6223 333.768 50.0198 335.715 48.4105C337.691 46.7766 338.559 44.3002 338.626 41.9043C338.692 39.5083 338.044 37.1473 337.4 34.8197L333.998 30.0686Z" fill="#2F2E41"/>
<path d="M357.26 12.9331C357.696 21.0421 357.164 29.2004 356.531 37.2753C356.327 39.874 356.101 42.5341 355.341 44.8477C354.582 47.1613 353.169 49.093 351.551 49.1529C354.096 50.4061 357.03 49.3076 358.976 46.3736C360.952 43.3948 361.821 38.8798 361.887 34.5116C361.954 30.1434 361.306 25.8388 360.662 21.5953L357.26 12.9331Z" fill="#2F2E41"/>
<path d="M86.3679 254.7L94.036 254.699L97.6837 225.122L86.3663 225.122L86.3679 254.7Z" fill="#A0616A"/>
<path d="M112.64 254.525C112.878 254.928 113.004 256.225 113.004 256.693C113.004 258.13 111.839 259.296 110.402 259.296H86.6547C85.6741 259.296 84.8792 258.501 84.8792 257.52V256.531C84.8792 256.531 83.7045 253.56 86.1231 249.898C86.1231 249.898 89.1291 252.765 93.6208 248.274L94.9454 245.874L104.534 252.886L109.848 253.54C111.011 253.684 112.042 253.518 112.64 254.525Z" fill="#2F2E41"/>
<path d="M62.8628 254.7L70.5308 254.699L74.1786 225.122L62.8612 225.122L62.8628 254.7Z" fill="#A0616A"/>
<path d="M89.1346 254.525C89.3733 254.928 89.4993 256.225 89.4993 256.693C89.4993 258.13 88.3341 259.296 86.8967 259.296H63.1496C62.169 259.296 61.3741 258.501 61.3741 257.52V256.531C61.3741 256.531 60.1993 253.56 62.618 249.898C62.618 249.898 65.624 252.765 70.1157 248.274L71.4403 245.874L81.0284 252.886L86.3429 253.54C87.5056 253.684 88.5365 253.518 89.1346 254.525Z" fill="#2F2E41"/>
<path d="M64.1245 106.574L59.3167 182.966L61.7206 241.907H76.6825L86.027 141.832L83.9511 241.907L97.7795 241.728L112.47 126.607C112.47 126.607 112.203 114.587 107.662 108.444C103.122 102.3 64.1245 106.574 64.1245 106.574Z" fill="#2F2E41"/>
<path d="M119.797 89.0007L107.754 89.4751L109.16 102.927L132.77 120.731L135.975 115.923L119.022 96.4009L119.797 89.0007Z" fill="#A0616A"/>
<path d="M96.9782 39.5313L80.4178 37.9287L68.131 43.805V92.4177L64.2241 100.587C62.9658 103.218 62.8334 106.248 63.8574 108.978L107.662 108.444L106.594 102.568L108.731 91.3493L110.333 50.2154L96.9782 39.5313Z" fill="#E6E6E6"/>
<path d="M106.861 49.9482C106.861 49.9482 110.6 46.2087 113.271 55.8244C115.943 65.4401 122.353 99.6293 122.353 99.6293L107.128 99.8964L103.122 63.3033L106.861 49.9482Z" fill="#E6E6E6"/>
<path d="M64.1245 91.082L62.5219 130.535L56.6456 131.147L54.5088 92.1504L64.1245 91.082Z" fill="#A0616A"/>
<path d="M74.2745 44.072C74.2745 44.072 64.6588 40.3325 61.9877 49.9482C59.3167 59.5639 52.9062 93.7531 52.9062 93.7531L64.6588 94.5964L78.0139 57.4271L74.2745 44.072Z" fill="#E6E6E6"/>
<path d="M88.2399 34.8779C96.3091 34.8779 102.851 28.3365 102.851 20.2672C102.851 12.1979 96.3091 5.65649 88.2399 5.65649C80.1706 5.65649 73.6292 12.1979 73.6292 20.2672C73.6292 28.3365 80.1706 34.8779 88.2399 34.8779Z" fill="#A0616A"/>
<path d="M59.9079 142.411C62.3457 142.328 64.2087 138.933 64.0692 134.827C63.9296 130.722 61.8403 127.46 59.4026 127.543C56.9648 127.626 55.1018 131.022 55.2413 135.127C55.3809 139.233 57.4702 142.494 59.9079 142.411Z" fill="#A0616A"/>
<path d="M144.224 126.623C145.864 124.818 144.728 121.115 141.687 118.353C138.646 115.591 134.851 114.816 133.211 116.621C131.572 118.427 132.707 122.13 135.748 124.892C138.789 127.653 142.584 128.429 144.224 126.623Z" fill="#A0616A"/>
<path d="M99.5607 7.6936C98.1115 5.41431 97.1152 6.33639 94.4289 6.05507C92.8893 5.89384 90.009 3.47392 88.501 3.82416C86.5134 4.28583 84.476 4.76859 82.7834 5.90832C79.1948 3.79723 77.9185 7.92932 74.8069 10.6957C71.6952 13.4619 70.6399 18.2984 72.3164 22.1094C73.1147 23.9243 73.0537 25.8503 74.3522 27.3486C75.8471 29.0736 76.6705 31.4745 76.7857 31.6073C77.4078 32.3252 80.3381 32.8291 80.4575 32.9671C81.6309 34.321 83.5214 33.9037 84.6947 35.2576L85.3712 28.0947C84.4213 27.2224 83.4384 26.302 82.9952 25.0909C82.552 23.8798 82.8458 22.2936 83.9838 21.6868C84.8788 21.2094 86.0762 21.4241 86.856 20.7754C88.0464 19.7852 87.312 17.714 88.1786 16.4309C88.691 15.6723 89.6416 15.3669 90.5208 15.1118C91.9458 14.6982 93.3708 14.2847 94.7957 13.8711C96.1213 13.4864 97.4828 13.0977 98.8587 13.2075C100.235 13.3173 101.65 14.0352 102.193 15.3039C101.692 12.6499 101.01 9.9729 99.5607 7.6936Z" fill="#2F2E41"/>
<path d="M149.264 99.5222C147.452 94.8525 142.197 92.5361 137.527 94.3483C132.902 96.1433 130.588 101.315 132.305 105.951L132.17 106.004L138.733 122.914L154.293 116.876C154.808 116.774 155.321 116.629 155.826 116.433C160.496 114.62 162.813 109.366 161 104.696C159.188 100.026 153.934 97.71 149.264 99.5222Z" fill="#BB1F1F"/>
<path d="M275.937 9.08149V65.7073C275.937 70.7149 271.863 74.7888 266.856 74.7888H210.23C205.222 74.7888 201.148 70.7149 201.148 65.7073V9.08149C201.148 4.07384 205.222 0 210.23 0H266.856C271.863 0 275.937 4.07384 275.937 9.08149ZM266.856 73.7204C271.281 73.7204 274.869 70.1328 274.869 65.7073V37.1588C274.869 17.2266 258.711 1.06841 238.778 1.06841C218.586 1.06841 202.217 17.4375 202.217 37.6299V65.7073C202.217 70.1328 205.804 73.7204 210.23 73.7204H266.856Z" fill="#3F3D56"/>
<path d="M263.819 20.4193C258.877 19.6033 254.209 22.9482 253.393 27.8902C252.585 32.7854 255.86 37.4092 260.725 38.2896L260.701 38.433L278.598 41.3881L281.317 24.9197C281.491 24.4251 281.628 23.9099 281.716 23.3745C282.532 18.4324 279.187 13.7645 274.245 12.9485C269.303 12.1325 264.635 15.4772 263.819 20.4193Z" fill="#BB1F1F"/>
<path d="M204.821 59.9909C203.009 55.3212 197.754 53.0048 193.085 54.817C188.459 56.6121 186.145 61.7841 187.863 66.4201L187.727 66.4727L194.29 83.3831L209.851 77.3443C210.365 77.2426 210.878 77.0977 211.384 76.9013C216.053 75.0891 218.37 69.8345 216.558 65.1648C214.745 60.4951 209.491 58.1787 204.821 59.9909Z" fill="#BB1F1F"/>
<path d="M345.894 120.546C340.999 119.485 336.17 122.593 335.109 127.489C334.058 132.338 337.098 137.119 341.913 138.24L341.883 138.382L359.61 142.225L363.146 125.913C363.345 125.428 363.507 124.92 363.621 124.389C364.683 119.494 361.575 114.665 356.679 113.604C351.784 112.543 346.955 115.651 345.894 120.546Z" fill="#BB1F1F"/>
<path d="M41.9437 250.891C40.84 250.961 40.2301 249.589 41.0651 248.79L41.1481 248.46C41.1372 248.434 41.1262 248.407 41.1151 248.381C39.9991 245.719 36.2165 245.738 35.1099 248.403C34.1277 250.769 32.8773 253.138 32.5693 255.639C32.4313 256.743 32.4934 257.868 32.7384 258.952C30.437 253.925 29.2259 248.435 29.2259 242.914C29.2259 241.527 29.3019 240.14 29.4571 238.757C29.5848 237.625 29.7607 236.5 29.9885 235.386C31.2202 229.361 33.8874 223.623 37.7345 218.831C39.5839 217.82 41.1263 216.24 42.0578 214.345C42.3925 213.662 42.6548 212.927 42.779 212.179C42.5685 212.206 41.9854 209.001 42.1441 208.804C41.8508 208.359 41.3258 208.138 41.0055 207.704C39.4123 205.543 37.2173 205.921 36.0714 208.856C33.6236 210.091 33.5999 212.14 35.1019 214.111C36.0575 215.365 36.1888 217.061 37.0272 218.403C36.9409 218.513 36.8512 218.62 36.765 218.731C35.1832 220.76 33.815 222.94 32.6617 225.231C32.9877 222.685 32.5064 219.618 31.686 217.641C30.7521 215.388 29.0017 213.49 27.4602 211.543C25.6087 209.203 21.8119 210.224 21.4857 213.19C21.4825 213.218 21.4794 213.247 21.4764 213.276C21.7054 213.405 21.9297 213.542 22.1488 213.687C23.3986 214.514 22.9666 216.451 21.4858 216.68L21.4523 216.685C21.5351 217.509 21.6765 218.327 21.8835 219.131C19.906 226.779 24.1754 229.564 30.2714 229.689C30.4059 229.758 30.5371 229.827 30.6716 229.893C30.054 231.632 29.5606 233.416 29.1949 235.224C28.8671 236.821 28.6394 238.436 28.5117 240.058C28.353 242.104 28.3668 244.16 28.5393 246.203L28.529 246.13C28.0908 243.881 26.8693 241.779 25.0958 240.323C22.4539 238.153 18.7212 237.354 15.871 235.609C14.499 234.77 12.7409 235.855 12.9803 237.445L12.992 237.522C13.4164 237.694 13.8304 237.894 14.2306 238.118C14.4596 238.248 14.6839 238.385 14.903 238.53C16.1528 239.356 15.7209 241.294 14.24 241.522L14.2065 241.527C14.1823 241.531 14.1616 241.534 14.1375 241.538C14.8655 243.266 15.8799 244.871 17.1496 246.254C18.3861 252.93 23.6969 253.564 29.3777 251.62H29.3812C30.0023 254.325 30.9097 256.968 32.0759 259.487H41.7024C41.737 259.38 41.768 259.269 41.7991 259.162C40.9089 259.217 40.0118 259.166 39.1354 259.004C39.8496 258.127 40.5638 257.244 41.2781 256.367C41.2953 256.35 41.3091 256.333 41.3229 256.316C41.6852 255.867 42.0509 255.422 42.4132 254.974L42.4134 254.973C42.4361 253.596 42.2707 252.223 41.9437 250.891Z" fill="#F2F2F2"/>
<path d="M0.66616 260.393H399.334C399.702 260.393 400 260.095 400 259.727C400 259.359 399.702 259.061 399.334 259.061H0.66616C0.298258 259.061 0 259.359 0 259.727C0 260.095 0.298258 260.393 0.66616 260.393Z" fill="#E6E6E6"/>
</g>
<defs>
<clipPath id="clip0_3_282">
<rect width="400" height="260.393" fill="white"/>
</clipPath>
</defs>
</svg>
